<svg width="27" height="27" viewBox="0 0 27 27" fill="none" xmlns="http://www.w3.org/2000/svg">
<g clip-path="url(#clip0_725_42)">
<path d="M13.859 16.7381C13.6115 16.8928 13.333 16.9546 13.0855 16.9546C12.838 16.9546 12.5595 16.8928 12.312 16.7381L-0.00195312 9.21973V19.2132C-0.00195312 21.3481 1.73067 23.0807 3.8655 23.0807H22.3365C24.4713 23.0807 26.2039 21.3481 26.2039 19.2132V9.21973L13.859 16.7381Z" fill="url(#paint0_linear_725_42)"/>
<path d="M22.3377 3.77441H3.86674C2.04131 3.77441 0.494323 5.07388 0.123047 6.8065L13.1177 14.7271L26.0814 6.8065C25.7101 5.07388 24.1632 3.77441 22.3377 3.77441Z" fill="url(#paint1_linear_725_42)"/>
</g>
<defs>
<linearGradient id="paint0_linear_725_42" x1="-0.00195312" y1="15.3302" x2="26.2039" y2="15.3302" gradientUnits="userSpaceOnUse">
<stop stop-color="#899ABA"/>
<stop offset="0.385249" stop-color="#8AD4C2"/>
<stop offset="0.6875" stop-color="#5B7EBF"/>
</linearGradient>
<linearGradient id="paint1_linear_725_42" x1="0.123047" y1="8.60277" x2="26.0814" y2="8.60277" gradientUnits="userSpaceOnUse">
<stop stop-color="#899ABA"/>
<stop offset="0.385249" stop-color="#8AD4C2"/>
<stop offset="0.6875" stop-color="#5B7EBF"/>
</linearGradient>
<clipPath id="clip0_725_42">
<rect width="26.2059" height="26.2059" fill="white" transform="translate(0 0.324219)"/>
</clipPath>
</defs>
</svg>
